<svg xmlns="http://www.w3.org/2000/svg" width="34" height="34" viewBox="0 0 34 34">
    <path fill="#1E88E5" d="M16.6927,1.5176L16.6928,1.5176A15.1751,15.1751 0,0 1,31.8679 16.6927L31.8679,16.6928A15.1751,15.1751 0,0 1,16.6928 31.8679L16.6927,31.8679A15.1751,15.1751 0,0 1,1.5176 16.6928L1.5176,16.6927A15.1751,15.1751 0,0 1,16.6927 1.5176z" />
    <path fill="#1E88E5" d="M15.7258,0.0012C10.3724,0.3119 5.4993,3.1651 2.6178,7.6852C-0.2637,12.2051 -0.8005,17.8269 1.177,22.7989C1.742,24.2538 2.5189,25.6098 3.4653,26.8528L1.2335,32.0366C1.0499,32.4745 1.0923,32.9689 1.3465,33.3644C1.6008,33.7599 2.0528,34 2.5189,34C2.6036,34 2.6884,33.9859 2.759,33.9859L11.2481,32.4886C12.6889,32.9971 14.1861,33.2938 15.6975,33.3785C15.5986,33.4068 17.7033,33.4915 18.5225,33.3079C22.3928,32.9124 25.9946,31.1468 28.6784,28.35C35.0205,21.8525 35.0205,11.4848 28.6784,4.9873C25.9805,2.1905 22.3786,0.439 18.5225,0.0577C17.9293,-0.013 15.7258,0.0012 15.7258,0.0012ZM26.7009,26.3866C24.1866,28.9856 20.7543,30.497 17.1241,30.5959C15.3444,30.6524 13.5788,30.3558 11.912,29.7343C11.6719,29.6354 11.4176,29.6213 11.1634,29.6636L4.8495,30.7654L6.3891,27.1776C6.601,26.6833 6.5163,26.1041 6.1631,25.6945C5.1603,24.5363 4.3551,23.2085 3.8043,21.7678C2.1234,17.4879 2.6743,12.6571 5.2733,8.8575C7.8723,5.0579 12.1663,2.7979 16.771,2.7979C16.884,2.7979 17.0111,2.7979 17.1241,2.7979H17.1383C22.6611,2.9533 27.5625,6.3433 29.6247,11.4565C31.7011,16.5839 30.557,22.4316 26.7009,26.3866Z" />
    <path fill="#ffffff" d="M10.2172,14.6487H18.8334C19.6103,14.6487 20.2459,14.0131 20.2459,13.2362C20.2459,12.4594 19.6103,11.8237 18.8334,11.8237H10.2172C9.4403,11.8237 8.8047,12.4594 8.8047,13.2362C8.8047,14.0131 9.4262,14.6487 10.2172,14.6487Z" />
    <path fill="#ffffff" d="M24.4834,17.4736H10.2172C9.4403,17.4736 8.8047,18.1093 8.8047,18.8861C8.8047,19.663 9.4403,20.2986 10.2172,20.2986H24.4834C25.2603,20.2986 25.8959,19.663 25.8959,18.8861C25.8959,18.1093 25.2603,17.4736 24.4834,17.4736Z" />
    <path fill="#1E88E5" d="M4.5527,27.3152h6.0701v4.5525h-6.0701z" />
</svg>