<svg
  xmlns="http://www.w3.org/2000/svg" width="23" height="23" viewBox="0 0 23 23">
  <path
    d="M10.3628,0.0008C6.8351,0.2055 3.6239,2.0858 1.725,5.0643C-0.1738,8.0428 -0.5275,11.7474 0.7756,15.0238C1.1479,15.9826 1.6599,16.8761 2.2835,17.6952L0.8129,21.1112C0.6919,21.3998 0.7198,21.7256 0.8873,21.9862C1.0549,22.2468 1.3527,22.4051 1.6599,22.4051C1.7157,22.4051 1.7716,22.3958 1.8181,22.3958L7.4122,21.4091C8.3616,21.7442 9.3483,21.9397 10.3442,21.9955C10.2791,22.0141 11.666,22.07 12.2058,21.949C14.7562,21.6883 17.1297,20.5248 18.8983,18.6819C23.0775,14.4002 23.0775,7.5681 18.8983,3.2865C17.1204,1.4435 14.7469,0.2893 12.2058,0.038C11.8149,-0.0085 10.3628,0.0008 10.3628,0.0008ZM17.5951,17.3881C15.9383,19.1007 13.6765,20.0967 11.2843,20.1618C10.1115,20.1991 8.948,20.0036 7.8497,19.594C7.6915,19.5289 7.5239,19.5196 7.3564,19.5475L3.1957,20.2735L4.2103,17.9093C4.3499,17.5835 4.294,17.2019 4.0613,16.932C3.4005,16.1687 2.8699,15.2938 2.5069,14.3444C1.3993,11.524 1.7623,8.3407 3.4749,5.8369C5.1876,3.333 8.0172,1.8437 11.0516,1.8437C11.1261,1.8437 11.2099,1.8437 11.2843,1.8437H11.2936C14.9331,1.9461 18.1629,4.18 19.5219,7.5495C20.8902,10.9283 20.1362,14.7818 17.5951,17.3881Z"
    fill="#ffffff"
  />
  <path
    d="M6.7326,9.6531H12.4104C12.9224,9.6531 13.3412,9.2342 13.3412,8.7223C13.3412,8.2104 12.9224,7.7915 12.4104,7.7915H6.7326C6.2206,7.7915 5.8018,8.2104 5.8018,8.7223C5.8018,9.2342 6.2113,9.6531 6.7326,9.6531Z"
    fill="#ffffff"
  />
  <path
    d="M16.1336,11.5146H6.7326C6.2206,11.5146 5.8018,11.9335 5.8018,12.4454C5.8018,12.9574 6.2206,13.3762 6.7326,13.3762H16.1336C16.6455,13.3762 17.0644,12.9574 17.0644,12.4454C17.0644,11.9335 16.6455,11.5146 16.1336,11.5146Z"
    fill="#ffffff"
  />
</svg>
