<svg xmlns="http://www.w3.org/2000/svg" width="17" height="17" viewBox="0 0 17 17">
    <path fill="#F05C26" d="M3.3356,10.9833C4.9653,12.9314 6.9271,14.4652 9.1663,15.5506C10.0188,15.9546 11.1589,16.4339 12.4291,16.5161C12.5078,16.5195 12.5831,16.5229 12.6619,16.5229C13.5144,16.5229 14.1991,16.2285 14.7572,15.6225C14.7606,15.619 14.7675,15.6122 14.7709,15.6053C14.9695,15.3657 15.1954,15.15 15.4317,14.9206C15.5926,14.7665 15.7569,14.6056 15.9144,14.4413C16.6437,13.6812 16.6437,12.7157 15.9076,11.9796L13.8499,9.922C13.5007,9.559 13.083,9.3673 12.6448,9.3673C12.2065,9.3673 11.7854,9.559 11.4259,9.9185L10.2002,11.1442C10.0872,11.0792 9.9708,11.021 9.8613,10.9662C9.7243,10.8977 9.5976,10.8327 9.4847,10.7608C8.3685,10.0521 7.3551,9.1277 6.3862,7.9396C5.8966,7.3199 5.5679,6.7995 5.3385,6.2688C5.6604,5.9778 5.9616,5.6731 6.2527,5.3752C6.3554,5.2691 6.4615,5.163 6.5676,5.0568C6.9374,4.6871 7.136,4.2591 7.136,3.8243C7.136,3.3895 6.9408,2.9615 6.5676,2.5918L5.5474,1.5715C5.4275,1.4517 5.3146,1.3353 5.1982,1.2154C4.9722,0.9826 4.7359,0.7429 4.5031,0.5273C4.1505,0.1815 3.7362,0 3.298,0C2.8632,0 2.4455,0.1815 2.0791,0.5307L0.7987,1.8111C0.333,2.2768 0.0694,2.8417 0.0146,3.4956C-0.0504,4.3139 0.1002,5.1835 0.4905,6.2346C1.0897,7.8609 1.9935,9.3707 3.3356,10.9833ZM0.85,3.5675C0.8911,3.1122 1.0657,2.7321 1.3944,2.4035L2.668,1.1298C2.8666,0.9381 3.0857,0.8388 3.298,0.8388C3.5068,0.8388 3.7191,0.9381 3.9143,1.1367C4.1437,1.349 4.3593,1.5715 4.5922,1.8077C4.7086,1.9276 4.8284,2.0474 4.9482,2.1706L5.9685,3.1909C6.1808,3.4032 6.2903,3.6189 6.2903,3.8312C6.2903,4.0434 6.1808,4.2591 5.9685,4.4714C5.8624,4.5775 5.7562,4.6871 5.6501,4.7932C5.3317,5.115 5.0338,5.4198 4.7051,5.7108C4.6983,5.7176 4.6949,5.721 4.688,5.7279C4.4039,6.0121 4.4484,6.2825 4.5168,6.488C4.5203,6.4982 4.5237,6.5051 4.5271,6.5153C4.7907,7.1487 5.1571,7.7513 5.7288,8.4703C6.7559,9.7371 7.8379,10.7197 9.0293,11.4763C9.1765,11.5722 9.334,11.6475 9.4812,11.7228C9.6182,11.7913 9.7449,11.8564 9.8579,11.9283C9.8715,11.9351 9.8818,11.942 9.8955,11.9488C10.0085,12.007 10.1181,12.0344 10.2276,12.0344C10.5015,12.0344 10.6795,11.8598 10.7377,11.8016L12.0182,10.5211C12.2168,10.3225 12.4325,10.2164 12.6448,10.2164C12.905,10.2164 13.1172,10.3773 13.2508,10.5211L15.3153,12.5822C15.7261,12.993 15.7227,13.4381 15.305,13.8729C15.1612,14.027 15.0106,14.1742 14.8496,14.3283C14.61,14.5611 14.36,14.8008 14.1341,15.0712C13.7404,15.4958 13.2713,15.6944 12.6653,15.6944C12.6071,15.6944 12.5455,15.6909 12.4873,15.6875C11.3643,15.6156 10.3201,15.1774 9.536,14.8042C7.4065,13.7737 5.5371,12.3117 3.9862,10.4561C2.7091,8.9188 1.8498,7.4877 1.2814,5.9539C0.9288,5.0123 0.7952,4.2557 0.85,3.5675Z" />
</svg>