<svg
  xmlns="http://www.w3.org/2000/svg" xmlns:android="http://schemas.android.com/apk/res/android" viewBox="0 0 23 18" width="23" height="18"> 
    <path
      fill="#ffffff"
      d="M20.1922,0H2.8125C1.2611,0 0,1.2611 0,2.8125V14.6909C0,16.2423 1.2611,17.5034 2.8125,17.5034H20.1875C21.7389,17.5034 23,16.2423 23,14.6909V2.8173C23.0047,1.2659 21.7436,0 20.1922,0ZM21.7198,14.6909C21.7198,15.5332 21.0345,16.2185 20.1922,16.2185H2.8125C1.9702,16.2185 1.2849,15.5332 1.2849,14.6909V2.8173C1.2849,1.975 1.9702,1.2897 2.8125,1.2897H20.1875C21.0298,1.2897 21.7151,1.975 21.7151,2.8173V14.6909H21.7198Z"
    />
    <path
      fill="#ffffff"
      d="M14.5052,8.6042L20.1303,3.5597C20.3921,3.3218 20.4159,2.9172 20.1779,2.6507C19.94,2.389 19.5354,2.3652 19.2689,2.6032L11.5119,9.5655L9.9985,8.214C9.9938,8.2092 9.989,8.2044 9.989,8.1997C9.9557,8.1664 9.9224,8.1378 9.8843,8.1093L3.7262,2.5984C3.4597,2.3605 3.0552,2.3842 2.8173,2.6507C2.5793,2.9172 2.6031,3.3218 2.8696,3.5597L8.5613,8.647L2.8934,13.9532C2.6364,14.1959 2.6221,14.6005 2.8649,14.8622C2.9934,14.9955 3.1647,15.0668 3.336,15.0668C3.493,15.0668 3.6501,15.0097 3.7738,14.8955L9.5274,9.5131L11.0883,10.9075C11.212,11.017 11.3643,11.0693 11.5166,11.0693C11.6689,11.0693 11.826,11.0122 11.9449,10.9028L13.5487,9.4656L19.2689,14.9003C19.3927,15.0192 19.5545,15.0764 19.7115,15.0764C19.8829,15.0764 20.0494,15.0097 20.1779,14.8765C20.4206,14.6195 20.4111,14.2102 20.1541,13.9675L14.5052,8.6042Z"
    />
</svg>