<svg xmlns="http://www.w3.org/2000/svg" xmlns:android="http://schemas.android.com/apk/res/android" width="20" height="20">
    <path fill="#F05C26" d="M0.1992,6.5964L9.0801,0.094C9.2514,-0.0313 9.484,-0.0313 9.6552,0.094L18.5362,6.5964C18.7531,6.7553 18.8003,7.0599 18.6414,7.2768C18.4826,7.4937 18.1779,7.5408 17.961,7.382L9.3677,1.0901L0.7744,7.382C0.6878,7.4455 0.587,7.476 0.4872,7.476C0.3373,7.476 0.1894,7.407 0.0941,7.2768C-0.0648,7.0599 -0.0177,6.7553 0.1992,6.5964Z"/>
    <path fill="#F05C26" d="M2.5523,7.4922C2.8211,7.4922 3.0391,7.7101 3.0391,7.979V15.7274H6.9334V11.4978C6.9334,10.1556 8.0254,9.0637 9.3675,9.0637C10.7097,9.0637 11.8017,10.1557 11.8017,11.4978V15.7275H15.696V7.979C15.696,7.7102 15.914,7.4922 16.1828,7.4922C16.4516,7.4922 16.6696,7.7102 16.6696,7.979V16.2143C16.6696,16.4832 16.4516,16.7011 16.1828,16.7011H11.3149C11.0589,16.7011 10.8494,16.5033 10.83,16.2522C10.8288,16.2408 10.8281,16.2284 10.8281,16.2143V11.4979C10.8281,10.6925 10.1729,10.0373 9.3675,10.0373C8.5622,10.0373 7.907,10.6925 7.907,11.4979V16.2143C7.907,16.2283 7.9062,16.2406 7.905,16.2518C7.8859,16.5031 7.6763,16.7011 7.4202,16.7011H2.5523C2.2834,16.7011 2.0655,16.4832 2.0655,16.2143V7.979C2.0655,7.7101 2.2835,7.4922 2.5523,7.4922Z"/>
</svg>