<svg width="129" height="88" viewBox="0 0 129 88" fill="none" xmlns="http://www.w3.org/2000/svg">
<path d="M68.4703 0C68.4703 0 58.3689 13.3333 68.9818 25.2698C79.5946 37.2063 86.2436 45.0794 83.5584 52.6984C81.5126 56.381 79.5946 58.0317 66.0409 57.9048C61.4377 57.7778 58.1132 57.6508 67.831 64C61.0541 62.9841 49.5462 60.0635 44.3037 51.8095C43.6644 49.6508 44.8151 46.0952 53.1264 49.0159C61.3098 51.9365 71.1555 55.619 72.0505 49.5238C72.4341 45.3333 70.7719 42.1587 64.5065 35.1746C59.6476 30.0952 50.0576 14.7302 68.4703 0Z" fill="white"/>
<path d="M56.8402 10C56.8402 10 48.7886 25.6703 58.4025 35.371C65.8533 43.4548 68.0164 47.1859 64.5313 49.5489C63.2094 50.4194 59.1235 50.5438 55.3981 45.0716C51.6727 39.5995 45.0632 28.5308 56.8402 10Z" fill="white"/>
<path d="M46.9408 29C46.9408 29 44.8582 36.7278 49.4697 41.8796C52.2962 44.9707 52.8912 46.1299 51.2548 46.9026C49.4697 47.289 46.7921 46.645 45.1557 42.7812C43.6681 38.7885 43.5193 34.2806 46.9408 29Z" fill="white"/>
<path d="M10.0824 83.5601C9.89738 84.9476 9.43489 86.0575 8.5099 86.7975C7.58491 87.5375 6.47492 87.9075 5.08744 87.9075C3.51496 87.9075 2.31247 87.3525 1.38748 86.2425C0.462494 85.1326 0 83.6526 0 81.8026V80.5076C0 79.3051 0.184998 78.1951 0.647493 77.2701C1.10999 76.3452 1.66498 75.6052 2.49747 75.1427C3.32996 74.6802 4.25495 74.4027 5.27244 74.4027C6.65992 74.4027 7.76991 74.7727 8.6024 75.6052C9.43489 76.3452 9.89738 77.4551 10.0824 78.8426H8.3249C8.1399 77.8251 7.86241 76.9926 7.30741 76.5302C6.84492 76.0677 6.10493 75.7902 5.17994 75.7902C4.06995 75.7902 3.23746 76.1602 2.58997 76.9926C1.94248 77.8251 1.66498 78.9351 1.66498 80.5076V81.8026C1.66498 83.1901 1.94248 84.3926 2.58997 85.225C3.23746 86.0575 3.97745 86.52 5.08744 86.52C6.01243 86.52 6.75242 86.335 7.30741 85.8725C7.86241 85.41 8.1399 84.6701 8.3249 83.5601H10.0824Z" fill="white"/>
<path d="M18.2223 87.7225C18.1298 87.5375 18.0373 87.1675 17.9448 86.705C17.2048 87.5375 16.2798 87.9075 15.1698 87.9075C14.2448 87.9075 13.4123 87.63 12.7648 87.075C12.1173 86.52 11.8399 85.8725 11.8399 85.0401C11.8399 84.0226 12.2098 83.2826 12.9498 82.6351C13.6898 82.0801 14.7998 81.8026 16.1873 81.8026H17.8523V81.0626C17.8523 80.5076 17.6673 80.0451 17.2973 79.6751C16.9273 79.3051 16.4648 79.1201 15.7248 79.1201C15.1698 79.1201 14.6148 79.3051 14.2448 79.5826C13.9673 79.9526 13.7823 80.3226 13.7823 80.6926H12.1173C12.1173 80.2301 12.3023 79.7676 12.6723 79.3051C13.0423 78.8426 13.5048 78.4726 14.0598 78.1951C14.6148 77.9176 15.2623 77.8251 16.0023 77.8251C17.1123 77.8251 18.0373 78.1026 18.5923 78.6576C19.2398 79.2126 19.5173 79.9526 19.6098 80.9701V85.41C19.6098 86.335 19.7023 86.9825 19.9797 87.5375V87.7225H18.2223ZM15.4473 86.52C16.0023 86.52 16.4648 86.4275 16.9273 86.15C17.3898 85.8725 17.7598 85.5025 17.9448 85.1326V83.0976H16.6498C14.6148 83.0976 13.5973 83.6526 13.5973 84.8551C13.5973 85.41 13.7823 85.78 14.1523 86.0575C14.4298 86.335 14.8923 86.52 15.4473 86.52Z" fill="white"/>
<path d="M26.9172 79.4901C26.6397 79.4901 26.3622 79.3976 26.0847 79.3976C24.9747 79.3976 24.2347 79.8601 23.8647 80.7851V87.7225H22.1997V78.0101H23.8647V79.1201C24.4197 78.2876 25.1597 77.8251 26.1772 77.8251C26.5472 77.8251 26.7322 77.8251 26.9172 77.9176V79.4901Z" fill="white"/>
<path d="M30.0621 78.0101L30.1546 79.2126C30.8946 78.2876 31.9121 77.8251 33.0221 77.8251C35.0571 77.8251 36.0746 79.0276 36.1671 81.3401V87.815H34.5021V81.3401C34.5021 80.6001 34.3171 80.1376 34.0396 79.7676C33.7621 79.3976 33.2071 79.3051 32.5596 79.3051C32.0046 79.3051 31.5421 79.4901 31.1721 79.7676C30.8021 80.0451 30.4321 80.4151 30.2471 80.8776V87.7225H28.5822V78.0101H30.0621Z" fill="white"/>
<path d="M38.202 82.8201C38.202 81.8951 38.387 80.9701 38.757 80.2301C39.127 79.4901 39.682 78.8426 40.3295 78.4726C40.977 78.1026 41.717 77.8251 42.642 77.8251C43.937 77.8251 45.0469 78.2876 45.8794 79.2126C46.7119 80.1376 47.0819 81.3401 47.0819 82.9126V83.0051C47.0819 83.9301 46.8969 84.7626 46.5269 85.595C46.1569 86.4275 45.6019 86.89 44.9544 87.3525C44.307 87.815 43.4745 88 42.642 88C41.347 88 40.237 87.5375 39.4045 86.6125C38.572 85.6875 38.202 84.4851 38.202 83.0051V82.8201ZM39.867 83.0051C39.867 84.1151 40.1445 84.9476 40.607 85.595C41.0695 86.2425 41.8095 86.6125 42.642 86.6125C43.4745 86.6125 44.122 86.2425 44.677 85.595C45.1395 84.9476 45.4169 84.0226 45.4169 82.8201C45.4169 81.7101 45.1395 80.8776 44.677 80.2301C44.2145 79.5826 43.4745 79.2126 42.642 79.2126C41.8095 79.2126 41.162 79.5826 40.6995 80.2301C40.237 80.8776 39.867 81.8026 39.867 83.0051Z" fill="white"/>
<path d="M51.4294 75.6977V78.0101H53.2794V79.3051H51.4294V85.3176C51.4294 85.6875 51.5219 85.965 51.7069 86.15C51.8919 86.335 52.1694 86.4275 52.5394 86.4275C52.7244 86.4275 53.0019 86.4275 53.3719 86.335V87.7225C52.9094 87.815 52.5394 87.9075 52.0769 87.9075C51.3369 87.9075 50.7819 87.7225 50.4119 87.26C50.0419 86.7975 49.8569 86.15 49.8569 85.3176V79.3051H48.0994V78.0101H49.8569V75.6977H51.4294Z" fill="white"/>
<path d="M61.1418 87.7225C61.0493 87.5375 60.9568 87.1675 60.8643 86.705C60.1243 87.5375 59.1993 87.9075 58.0893 87.9075C57.1643 87.9075 56.3318 87.63 55.6844 87.075C55.0369 86.52 54.7594 85.8725 54.7594 85.0401C54.7594 84.0226 55.1294 83.2826 55.8693 82.6351C56.6093 82.0801 57.7193 81.8026 59.1068 81.8026H60.7718V81.0626C60.7718 80.5076 60.5868 80.0451 60.2168 79.6751C59.8468 79.3051 59.3843 79.1201 58.6443 79.1201C58.0893 79.1201 57.5343 79.3051 57.1643 79.5826C56.7943 79.8601 56.5168 80.2301 56.5168 80.6926H54.8519C54.8519 80.2301 55.0369 79.7676 55.4069 79.3051C55.7768 78.8426 56.2393 78.4726 56.7943 78.1951C57.3493 77.9176 57.9968 77.8251 58.7368 77.8251C59.8468 77.8251 60.7718 78.1026 61.3268 78.6576C61.9743 79.2126 62.2518 79.9526 62.3443 80.9701V85.41C62.3443 86.335 62.4368 86.9825 62.7143 87.5375V87.7225H61.1418ZM58.3668 86.52C58.9218 86.52 59.3843 86.4275 59.8468 86.15C60.3093 85.8725 60.6793 85.5025 60.8643 85.1326V83.0976H59.5693C57.5343 83.0976 56.5168 83.6526 56.5168 84.8551C56.5168 85.41 56.7018 85.78 57.0718 86.0575C57.4418 86.335 57.8118 86.52 58.3668 86.52Z" fill="white"/>
<path d="M71.1316 86.7975C70.4841 87.5375 69.5591 87.9075 68.2642 87.9075C67.2467 87.9075 66.4142 87.63 65.8592 86.9825C65.3042 86.335 65.0267 85.5026 65.0267 84.3001V78.0101H66.6917V84.3001C66.6917 85.78 67.2467 86.52 68.4492 86.52C69.7441 86.52 70.5766 86.0575 70.9466 85.1326V78.0101H72.6116V87.7225H71.0391L71.1316 86.7975Z" fill="white"/>
<path d="M77.6066 75.6977V78.0101H79.4565V79.3051H77.6066V85.3176C77.6066 85.6875 77.6991 85.965 77.8841 86.15C78.0691 86.335 78.3465 86.4275 78.7165 86.4275C78.9015 86.4275 79.179 86.4275 79.549 86.335V87.7225C79.0865 87.815 78.7165 87.9075 78.2541 87.9075C77.5141 87.9075 76.9591 87.7225 76.5891 87.26C76.2191 86.7975 76.0341 86.15 76.0341 85.3176V79.3051H74.2766V78.0101H76.0341V75.6977H77.6066Z" fill="white"/>
<path d="M80.7515 82.8201C80.7515 81.8951 80.9365 80.9701 81.3065 80.2301C81.6765 79.4901 82.2315 78.8426 82.879 78.4726C83.5265 78.1026 84.2665 77.8251 85.1915 77.8251C86.4864 77.8251 87.5964 78.2876 88.4289 79.2126C89.2614 80.1376 89.6314 81.3401 89.6314 82.9126V83.0051C89.6314 83.9301 89.4464 84.7626 89.0764 85.595C88.7064 86.335 88.1514 86.89 87.5039 87.3525C86.8564 87.815 86.0239 88 85.1915 88C83.8965 88 82.7865 87.5375 81.954 86.6125C81.1215 85.6875 80.7515 84.4851 80.7515 83.0051V82.8201ZM82.4165 83.0051C82.4165 84.1151 82.694 84.9476 83.1565 85.595C83.619 86.2425 84.359 86.6125 85.1915 86.6125C86.0239 86.6125 86.6714 86.2425 87.2264 85.595C87.6889 84.9476 87.9664 84.0226 87.9664 82.8201C87.9664 81.7101 87.6889 80.8776 87.2264 80.2301C86.7639 79.5826 86.0239 79.2126 85.1915 79.2126C84.359 79.2126 83.7115 79.5826 83.249 80.2301C82.6015 80.8776 82.4165 81.8026 82.4165 83.0051Z" fill="white"/>
<path d="M93.2389 78.0101V79.1201C93.9789 78.2876 94.9039 77.8251 96.1063 77.8251C97.4938 77.8251 98.4188 78.3801 98.8813 79.3976C99.2513 78.9351 99.6213 78.5651 100.176 78.2876C100.731 78.0101 101.286 77.8251 102.026 77.8251C104.154 77.8251 105.264 78.9351 105.264 81.2476V87.7225H103.599V81.3401C103.599 80.6001 103.414 80.1376 103.136 79.7676C102.859 79.3976 102.304 79.2126 101.564 79.2126C100.916 79.2126 100.454 79.3976 99.9913 79.7676C99.6213 80.1376 99.3438 80.6001 99.2513 81.2476V87.7225H97.5863V81.3401C97.5863 79.9526 96.9388 79.2126 95.5513 79.2126C94.4414 79.2126 93.7014 79.6751 93.3314 80.6001V87.7225H91.6664V78.0101H93.2389Z" fill="white"/>
<path d="M113.774 87.7225C113.681 87.5375 113.589 87.1675 113.496 86.705C112.756 87.5375 111.831 87.9075 110.721 87.9075C109.796 87.9075 108.964 87.63 108.316 87.075C107.669 86.52 107.391 85.8725 107.391 85.0401C107.391 84.0226 107.761 83.2826 108.501 82.6351C109.241 82.0801 110.351 81.8026 111.739 81.8026H113.404V81.0626C113.404 80.5076 113.219 80.0451 112.849 79.6751C112.479 79.3051 112.016 79.1201 111.276 79.1201C110.721 79.1201 110.166 79.3051 109.796 79.5826C109.426 79.8601 109.149 80.2301 109.149 80.6926H107.484C107.484 80.2301 107.669 79.7676 108.039 79.3051C108.409 78.8426 108.871 78.4726 109.426 78.1951C109.981 77.9176 110.629 77.8251 111.369 77.8251C112.479 77.8251 113.404 78.1026 113.959 78.6576C114.606 79.2126 114.884 79.9526 114.976 80.9701V85.41C114.976 86.335 115.069 86.9825 115.346 87.5375V87.7225H113.774ZM111.091 86.52C111.646 86.52 112.109 86.4275 112.571 86.15C113.034 85.8725 113.404 85.5025 113.589 85.1326V83.0976H112.294C110.259 83.0976 109.241 83.6526 109.241 84.8551C109.241 85.41 109.426 85.78 109.796 86.0575C110.074 86.335 110.536 86.52 111.091 86.52Z" fill="white"/>
<path d="M122.561 79.4901C122.284 79.4901 122.006 79.3976 121.729 79.3976C120.619 79.3976 119.879 79.8601 119.509 80.7851V87.7225H117.844V78.0101H119.509V79.1201C120.064 78.2876 120.804 77.8251 121.821 77.8251C122.191 77.8251 122.376 77.8251 122.561 77.9176V79.4901Z" fill="white"/>
<path d="M126.723 75.6977V78.0101H128.573V79.3051H126.723V85.3176C126.723 85.6875 126.816 85.965 127.001 86.15C127.186 86.335 127.463 86.4275 127.833 86.4275C128.018 86.4275 128.296 86.4275 128.666 86.335V87.7225C128.203 87.815 127.833 87.9075 127.371 87.9075C126.631 87.9075 126.076 87.7225 125.706 87.26C125.336 86.7975 125.151 86.15 125.151 85.3176V79.3051H123.394V78.0101H125.151V75.6977H126.723Z" fill="white"/>
</svg>
