<svg width="10" height="12" viewBox="0 0 10 12" xmlns="http://www.w3.org/2000/svg">
    <path d="M8.8375,2.0864C7.9214,0.7606 6.4695,0 4.8544,0C3.2393,0 1.7874,0.7606 0.8713,2.0864C-0.0403,3.4056 -0.2508,5.0757 0.3071,6.5512C0.4563,6.9541 0.6935,7.3456 1.0105,7.7124L4.5349,11.8523C4.6147,11.946 4.7315,12 4.8544,12C4.9773,12 5.0941,11.946 5.1738,11.8523L8.6973,7.7136C9.0156,7.3446 9.2525,6.9536 9.4005,6.5539C9.9596,5.0757 9.7491,3.4056 8.8375,2.0864ZM8.6148,6.26C8.5007,6.5684 8.3144,6.8733 8.0614,7.1666C8.0607,7.1673 8.06,7.168 8.0594,7.1688L4.8544,10.9333L1.6474,7.1664C1.3945,6.8734 1.2082,6.5686 1.093,6.2572C0.6316,5.0369 0.8067,3.6561 1.5615,2.5636C2.3187,1.4677 3.519,0.8392 4.8544,0.8392C6.1898,0.8392 7.3899,1.4677 8.1471,2.5636C8.9021,3.6561 9.0773,5.0369 8.6148,6.26Z" fill="#707070"/>
    <path d="M4.8545,2.4895C3.559,2.4895 2.5049,3.5435 2.5049,4.8392C2.5049,6.1348 3.5589,7.1888 4.8545,7.1888C6.1502,7.1888 7.2042,6.1348 7.2042,4.8392C7.2042,3.5436 6.1501,2.4895 4.8545,2.4895ZM4.8545,6.3496C4.0217,6.3496 3.344,5.672 3.344,4.8391C3.344,4.0063 4.0217,3.3286 4.8545,3.3286C5.6874,3.3286 6.365,4.0063 6.365,4.8391C6.365,5.672 5.6874,6.3496 4.8545,6.3496Z" fill="#707070"/>
  </svg>
  