<svg
  xmlns="http://www.w3.org/2000/svg" xmlns:android="http://schemas.android.com/apk/res/android" viewBox="0 0 18 25" width="18" height="25">
    <path
      fill="#ffffff"
      d="M15.7846,10H14.123V7.1477C14.123,4.2954 11.8246,1.9692 9,1.9692C6.1753,1.9692 3.8769,4.2954 3.8769,7.1477V10H2.2153V7.1477C2.2153,3.3815 5.2615,0.3077 9,0.3077C12.7385,0.3077 15.7846,3.3815 15.7846,7.1477V10Z"
    />
    <path
      fill="#ffffff"
      d="M8.8615,19.4154C8.3907,19.4154 8.0308,19.0554 8.0308,18.5847V16.6462C8.0308,16.1754 8.3908,15.8155 8.8615,15.8155C9.3323,15.8155 9.6923,16.1755 9.6923,16.6462V18.5847C9.6923,19.0554 9.3323,19.4154 8.8615,19.4154Z"
    />
    <path
      fill="#ffffff"
      d="M16.6154,24.1231H1.3846C0.6092,24.1231 0,23.5139 0,22.7385V10.8308C0,10.0554 0.6092,9.4462 1.3846,9.4462H16.6154C17.3908,9.4462 18,10.0555 18,10.8308V22.7385C18,23.5139 17.3908,24.1231 16.6154,24.1231ZM1.6615,22.4616H16.3385V11.1077H1.6615V22.4616Z"
    />

</svg>