<svg
    xmlns="http://www.w3.org/2000/svg"
    viewBox="0 0 23 23"
    id="vector">
    <g
        id="group"
        transform="translate(11.5 11.5) scale(0.8 0.8) translate(-11.5 -11.5)">
        <path
            id="path"
            d="M 18.161 14.248 C 17.69 13.757 17.122 13.495 16.52 13.495 C 15.923 13.495 15.35 13.753 14.86 14.243 L 13.326 15.772 C 13.2 15.704 13.073 15.641 12.952 15.578 C 12.777 15.49 12.612 15.408 12.471 15.32 C 11.034 14.408 9.729 13.219 8.476 11.68 C 7.87 10.913 7.462 10.267 7.166 9.612 C 7.564 9.248 7.933 8.869 8.292 8.505 C 8.428 8.369 8.564 8.228 8.7 8.092 C 9.719 7.073 9.719 5.753 8.7 4.733 L 7.374 3.408 C 7.224 3.257 7.069 3.102 6.923 2.947 C 6.632 2.646 6.326 2.335 6.01 2.044 C 5.539 1.578 4.976 1.33 4.384 1.33 C 3.792 1.33 3.219 1.578 2.734 2.044 C 2.729 2.049 2.729 2.049 2.724 2.054 L 1.073 3.719 C 0.452 4.34 0.098 5.097 0.02 5.976 C -0.097 7.393 0.321 8.714 0.641 9.578 C 1.428 11.699 2.603 13.665 4.355 15.772 C 6.481 18.311 9.039 20.316 11.962 21.728 C 13.078 22.257 14.568 22.884 16.233 22.99 C 16.335 22.995 16.442 23 16.539 23 C 17.661 23 18.602 22.597 19.34 21.796 C 19.345 21.786 19.355 21.782 19.36 21.772 C 19.612 21.466 19.903 21.189 20.209 20.893 C 20.418 20.694 20.631 20.485 20.84 20.267 C 21.321 19.767 21.573 19.184 21.573 18.587 C 21.573 17.985 21.316 17.408 20.826 16.922 L 18.161 14.248 Z M 19.898 19.359 C 19.894 19.359 19.894 19.364 19.898 19.359 C 19.709 19.563 19.515 19.748 19.306 19.951 C 18.991 20.253 18.67 20.568 18.369 20.922 C 17.879 21.447 17.301 21.694 16.544 21.694 C 16.471 21.694 16.394 21.694 16.321 21.689 C 14.879 21.597 13.539 21.034 12.534 20.553 C 9.787 19.223 7.374 17.335 5.37 14.942 C 3.714 12.947 2.607 11.102 1.874 9.121 C 1.423 7.913 1.258 6.971 1.331 6.083 C 1.379 5.515 1.598 5.044 2.001 4.641 L 3.656 2.986 C 3.894 2.762 4.146 2.641 4.394 2.641 C 4.7 2.641 4.947 2.825 5.103 2.981 C 5.107 2.986 5.112 2.991 5.117 2.995 C 5.413 3.272 5.695 3.558 5.991 3.864 C 6.141 4.02 6.297 4.175 6.452 4.335 L 7.777 5.66 C 8.292 6.175 8.292 6.651 7.777 7.165 C 7.636 7.306 7.5 7.447 7.36 7.583 C 6.952 8 6.564 8.389 6.141 8.767 C 6.132 8.777 6.122 8.782 6.117 8.791 C 5.7 9.209 5.777 9.617 5.865 9.893 C 5.87 9.908 5.874 9.922 5.879 9.937 C 6.224 10.772 6.709 11.558 7.447 12.495 L 7.452 12.5 C 8.792 14.151 10.204 15.437 11.763 16.422 C 11.962 16.549 12.165 16.651 12.36 16.748 C 12.534 16.835 12.7 16.918 12.84 17.005 C 12.86 17.015 12.879 17.029 12.899 17.039 C 13.064 17.121 13.219 17.16 13.379 17.16 C 13.782 17.16 14.034 16.908 14.117 16.825 L 15.777 15.165 C 15.942 15 16.204 14.801 16.51 14.801 C 16.811 14.801 17.059 14.99 17.209 15.155 C 17.214 15.16 17.214 15.16 17.219 15.165 L 19.894 17.84 C 20.394 18.335 20.394 18.845 19.898 19.359 Z"
            fill="#ffffff"/>
        <path
            id="path_1"
            d="M 12.413 5.471 C 13.685 5.685 14.84 6.287 15.763 7.209 C 16.685 8.131 17.282 9.287 17.5 10.558 C 17.554 10.879 17.831 11.102 18.146 11.102 C 18.185 11.102 18.219 11.097 18.258 11.092 C 18.617 11.034 18.855 10.694 18.797 10.335 C 18.534 8.796 17.806 7.393 16.695 6.282 C 15.583 5.17 14.18 4.442 12.641 4.18 C 12.282 4.122 11.947 4.359 11.884 4.714 C 11.821 5.068 12.054 5.413 12.413 5.471 Z"
            fill="#ffffff"/>
        <path
            id="path_2"
            d="M 22.957 10.146 C 22.524 7.612 21.33 5.306 19.495 3.471 C 17.66 1.636 15.355 0.442 12.821 0.01 C 12.466 -0.053 12.131 0.19 12.068 0.544 C 12.01 0.903 12.248 1.238 12.607 1.301 C 14.869 1.685 16.932 2.757 18.573 4.393 C 20.214 6.034 21.282 8.097 21.665 10.359 C 21.719 10.68 21.995 10.903 22.311 10.903 C 22.35 10.903 22.384 10.898 22.423 10.893 C 22.777 10.84 23.02 10.5 22.957 10.146 Z"
            fill="#ffffff"/>
    </g>
</svg>
