<svg xmlns="http://www.w3.org/2000/svg" width="19" height="18" viewBox="0 0 19 18">
    <path fill="#F05C26" d="M18.368,8.2733C18.7483,7.9027 18.8825,7.3587 18.7185,6.8537C18.5544,6.3486 18.126,5.9875 17.6005,5.9111L13.0055,5.2435C12.9153,5.2304 12.8374,5.1737 12.797,5.0919L10.7421,0.9282C10.5071,0.4521 10.0312,0.1563 9.5002,0.1563C8.9692,0.1563 8.4933,0.4521 8.2583,0.9282L6.2034,5.092C6.163,5.1737 6.0851,5.2304 5.9948,5.2435L1.3999,5.9111C0.8745,5.9875 0.4461,6.3486 0.282,6.8537C0.1178,7.3587 0.2521,7.9027 0.6324,8.2733L3.9574,11.5143C4.0226,11.578 4.0524,11.6697 4.037,11.7595L3.2521,16.3359C3.1623,16.8593 3.3734,17.3783 3.803,17.6904C4.2326,18.0026 4.7916,18.0429 5.2615,17.7959L9.3713,15.6352C9.4521,15.5928 9.5484,15.5928 9.6292,15.6352L13.739,17.7959C13.9434,17.9033 14.1646,17.9565 14.3848,17.9564C14.6706,17.9564 14.9547,17.8668 15.1974,17.6903C15.627,17.3782 15.8381,16.8592 15.7483,16.3358L14.9634,11.7595C14.948,11.6696 14.9778,11.578 15.0431,11.5143L18.368,8.2733ZM13.8715,11.9468L14.6564,16.5233C14.6827,16.6764 14.5882,16.7638 14.5463,16.7942C14.5044,16.8245 14.3921,16.8875 14.2546,16.8152L10.1447,14.6545C9.943,14.5485 9.7217,14.4954 9.5003,14.4954C9.2789,14.4954 9.0576,14.5485 8.8559,14.6545L4.746,16.8151C4.6085,16.8874 4.4962,16.8245 4.4543,16.7941C4.4125,16.7637 4.3179,16.6764 4.3442,16.5232L5.1291,11.9468C5.2062,11.4975 5.0573,11.0393 4.7308,10.7211L1.4059,7.48C1.2946,7.3715 1.3198,7.2453 1.3358,7.1961C1.3518,7.1468 1.4056,7.0299 1.5594,7.0076L6.1542,6.3399C6.6054,6.2744 6.9952,5.9912 7.197,5.5823L9.2519,1.4186C9.3207,1.2792 9.4485,1.2642 9.5003,1.2642C9.552,1.2642 9.6798,1.2792 9.7487,1.4186V1.4186L11.8036,5.5823C12.0054,5.9912 12.3952,6.2744 12.8463,6.3399L17.4412,7.0076C17.595,7.0299 17.6488,7.1469 17.6648,7.1961C17.6808,7.2454 17.706,7.3716 17.5947,7.4801L14.2698,10.7211C13.9433,11.0393 13.7945,11.4975 13.8715,11.9468Z" />
</svg>