<svg xmlns="http://www.w3.org/2000/svg" width="17" height="17" viewBox="0 0 17 17">
    <path fill="#F05C26" d="M13.4703,10.9215C12.4925,10.9215 11.6206,11.3875 11.0629,12.1076L6.3928,9.499C6.5023,9.1848 6.5623,8.8459 6.5623,8.4965C6.5623,8.1435 6.5023,7.8081 6.3893,7.4904L11.0558,4.8854C11.61,5.609 12.4854,6.0785 13.4668,6.0785C15.1399,6.0785 16.506,4.716 16.506,3.0392C16.506,1.3625 15.1435,0 13.4668,0C11.79,0 10.4275,1.3625 10.4275,3.0392C10.4275,3.3922 10.4875,3.7311 10.6005,4.0453L5.9375,6.6503C5.3833,5.9232 4.5079,5.4572 3.5266,5.4572C1.8534,5.4572 0.4873,6.8198 0.4873,8.4965C0.4873,10.1732 1.8534,11.5357 3.5301,11.5357C4.5114,11.5357 5.3868,11.0662 5.9445,10.3391L10.6111,12.9477C10.4981,13.2654 10.4346,13.6078 10.4346,13.9608C10.4346,15.6339 11.7971,17 13.4738,17C15.1505,17 16.5131,15.6375 16.5131,13.9608C16.5131,12.2841 15.147,10.9215 13.4703,10.9215ZM13.4703,0.9566C14.621,0.9566 15.5565,1.892 15.5565,3.0428C15.5565,4.1935 14.621,5.129 13.4703,5.129C12.3195,5.129 11.3841,4.1935 11.3841,3.0428C11.3841,1.892 12.3231,0.9566 13.4703,0.9566ZM3.5301,10.5826C2.3793,10.5826 1.4439,9.6472 1.4439,8.4965C1.4439,7.3457 2.3793,6.4103 3.5301,6.4103C4.6808,6.4103 5.6163,7.3457 5.6163,8.4965C5.6163,9.6472 4.6773,10.5826 3.5301,10.5826ZM13.4703,16.0434C12.3195,16.0434 11.3841,15.108 11.3841,13.9572C11.3841,12.8065 12.3195,11.8711 13.4703,11.8711C14.621,11.8711 15.5565,12.8065 15.5565,13.9572C15.5565,15.108 14.621,16.0434 13.4703,16.0434Z" />
</svg>