<svg xmlns="http://www.w3.org/2000/svg" width="21" height="25" viewBox="0 0 21 25">
    <g transform="scale(0.8) translate(0.5, 0.5)">
        <path fill="#ffffff" d="M10.4105,13.6144C10.436,13.6144 10.4616,13.6144 10.4923,13.6144C10.5025,13.6144 10.5127,13.6144 10.5229,13.6144C10.5383,13.6144 10.5587,13.6144 10.5741,13.6144C12.072,13.5888 13.2837,13.0622 14.1784,12.0551C16.1467,9.8362 15.8195,6.0325 15.7837,5.6695C15.6559,2.9445 14.3676,1.6408 13.3042,1.0324C12.5117,0.5774 11.5863,0.332 10.5536,0.3116H10.5178C10.5127,0.3116 10.5025,0.3116 10.4974,0.3116H10.4667C9.8992,0.3116 8.7847,0.4036 7.7162,1.012C6.6425,1.6204 5.3337,2.9241 5.2059,5.6695C5.1701,6.0325 4.8429,9.8362 6.8112,12.0551C7.7008,13.0622 8.9125,13.5888 10.4105,13.6144ZM6.571,5.7973C6.571,5.782 6.5761,5.7667 6.5761,5.7564C6.7448,2.0907 9.347,1.6971 10.4616,1.6971H10.482C10.4923,1.6971 10.5076,1.6971 10.5229,1.6971C11.9033,1.7278 14.25,2.2901 14.4085,5.7564C14.4085,5.7718 14.4085,5.7871 14.4136,5.7973C14.4187,5.8331 14.7766,9.3096 13.1508,11.1399C12.5066,11.8659 11.6477,12.2238 10.5178,12.234C10.5076,12.234 10.5025,12.234 10.4923,12.234C10.482,12.234 10.4769,12.234 10.4667,12.234C9.3419,12.2238 8.4779,11.8659 7.8389,11.1399C6.2182,9.3199 6.5658,5.828 6.571,5.7973Z" />
        <path fill="#ffffff" d="M20.9986,19.9233C20.9986,19.9181 20.9986,19.913 20.9986,19.9079C20.9986,19.867 20.9935,19.8261 20.9935,19.7801C20.9628,18.7678 20.8963,16.4007 18.6775,15.6441C18.6621,15.639 18.6417,15.6338 18.6264,15.6287C16.3206,15.0408 14.4034,13.7115 14.3829,13.6962C14.0711,13.4764 13.6416,13.553 13.4218,13.8649C13.202,14.1768 13.2786,14.6062 13.5905,14.8261C13.6774,14.8874 15.7122,16.3036 18.2583,16.958C19.4495,17.3823 19.5824,18.6553 19.6182,19.821C19.6182,19.867 19.6182,19.9079 19.6233,19.9488C19.6284,20.4089 19.5977,21.1196 19.5159,21.5286C18.6877,21.9989 15.4412,23.6247 10.5025,23.6247C5.5843,23.6247 2.3174,21.9938 1.484,21.5235C1.4022,21.1145 1.3664,20.4038 1.3767,19.9437C1.3767,19.9028 1.3818,19.8619 1.3818,19.8159C1.4176,18.6502 1.5505,17.3772 2.7417,16.9529C5.2877,16.2985 7.3225,14.8772 7.4095,14.8209C7.7213,14.6011 7.798,14.1717 7.5782,13.8598C7.3583,13.5479 6.9289,13.4712 6.617,13.6911C6.5966,13.7064 4.6896,15.0357 2.3736,15.6236C2.3532,15.6287 2.3378,15.6338 2.3225,15.639C0.1036,16.4007 0.0372,18.7678 0.0065,19.775C0.0065,19.821 0.0065,19.8619 0.0014,19.9028C0.0014,19.9079 0.0014,19.913 0.0014,19.9181C-0.0037,20.184 -0.0088,21.549 0.2621,22.2341C0.3133,22.367 0.4053,22.4795 0.528,22.5562C0.6814,22.6585 4.3573,25 10.5076,25C16.658,25 20.3339,22.6534 20.4873,22.5562C20.6049,22.4795 20.702,22.367 20.7532,22.2341C21.0088,21.5542 21.0037,20.1891 20.9986,19.9233Z" />
    </g>
</svg>