<svg xmlns="http://www.w3.org/2000/svg" width="35" height="34" viewBox="0 0 35 34">
  <path
    d="M17.2044,0H17.1959C7.8226,0 0.2002,7.6245 0.2002,17C0.2002,20.7188 1.3987,24.1655 3.4366,26.9641L1.318,33.2796L7.8523,31.1908C10.5404,32.9715 13.7471,34 17.2044,34C26.5778,34 34.2002,26.3734 34.2002,17C34.2002,7.6266 26.5778,0 17.2044,0Z"
    fill="#4CAF50"
  />
  <path
    d="M27.0964,24.0074C26.6862,25.1655 25.0585,26.126 23.7601,26.4065C22.8719,26.5956 21.7116,26.7465 17.8059,25.1272C12.81,23.0575 9.5927,17.9809 9.342,17.6515C9.1019,17.3221 7.3232,14.9634 7.3232,12.5239C7.3232,10.0844 8.5621,8.8965 9.0615,8.3865C9.4716,7.9679 10.1495,7.7766 10.7997,7.7766C11.0101,7.7766 11.1992,7.7872 11.3692,7.7957C11.8686,7.817 12.1194,7.8467 12.4487,8.6351C12.8589,9.6232 13.8576,12.0627 13.9766,12.3135C14.0977,12.5642 14.2189,12.9042 14.0489,13.2336C13.8895,13.5736 13.7492,13.7245 13.4985,14.0135C13.2477,14.3025 13.0097,14.5235 12.759,14.8337C12.5295,15.1036 12.2702,15.3926 12.5592,15.892C12.8482,16.3807 13.847,18.0106 15.3175,19.3196C17.2151,21.009 18.7536,21.5487 19.304,21.7782C19.7141,21.9482 20.2029,21.9079 20.5025,21.5891C20.8829,21.179 21.3525,20.499 21.8306,19.8296C22.1706,19.3494 22.5999,19.2899 23.0504,19.4599C23.5094,19.6192 25.9382,20.8199 26.4376,21.0685C26.937,21.3192 27.2664,21.4382 27.3875,21.6486C27.5065,21.859 27.5065,22.8471 27.0964,24.0074Z"
    fill="#FAFAFA"
  />
</svg>
